<svg width="14" height="14" viewBox="0 0 14 14" fill="none" xmlns="http://www.w3.org/2000/svg">
<path d="M6.80983 0.535889L8.75006 4.48542L13.0889 5.12264L9.94937 8.19519L10.6903 12.5359L6.80983 10.4854L2.92937 12.5359L3.6703 8.19519L0.530762 5.12264L4.8696 4.48542L6.80983 0.535889Z" fill="#FEDC5A"/>
<path d="M6.80983 0.535889L8.75006 4.48542L13.0889 5.12264L9.94937 8.19519L10.6903 12.5359L6.80983 10.4854L2.92937 12.5359L3.6703 8.19519L0.530762 5.12264L4.8696 4.48542L6.80983 0.535889Z" fill="#BEA545" fill-opacity="0.33"/>
<path d="M7.2586 0.315426C6.95942 0.462401 6.66024 0.609376 6.36106 0.756351C6.68398 1.41368 7.0069 2.07101 7.32982 2.72834C7.65364 3.38752 7.97747 4.0467 8.30129 4.70588C8.36013 4.82564 8.54539 4.96072 8.67741 4.98011C10.1237 5.19252 11.57 5.40492 13.0162 5.61733L12.7392 4.7653C11.6927 5.78948 10.6462 6.81366 9.59965 7.83785C9.50473 7.93074 9.43415 8.14841 9.4565 8.27932C9.70347 9.72622 9.95045 11.1731 10.1974 12.62L10.9239 12.0938C9.63041 11.4103 8.33692 10.7268 7.04343 10.0433C6.92475 9.98063 6.69491 9.98063 6.57623 10.0433C5.28275 10.7268 3.98926 11.4103 2.69577 12.0938L3.42224 12.62C3.66921 11.1731 3.91619 9.72622 4.16317 8.27932C4.18551 8.14841 4.11493 7.93074 4.02002 7.83785C2.97351 6.81366 1.92699 5.78948 0.880483 4.7653L0.603415 5.61733C2.04969 5.40492 3.49597 5.19252 4.94225 4.98011C5.07427 4.96072 5.25953 4.82564 5.31837 4.70588C5.31931 4.70397 5.32025 4.70205 5.32119 4.70014C5.64407 4.04288 5.96696 3.38561 6.28985 2.72834C6.61277 2.07101 6.93569 1.41368 7.2586 0.756351C6.95942 0.609376 6.66024 0.462401 6.36106 0.315426C6.03814 0.972757 5.71522 1.63009 5.3923 2.28742C5.06942 2.94469 4.74653 3.60195 4.42364 4.25922C4.4227 4.26113 4.42177 4.26304 4.42083 4.26495L4.79695 3.99072C3.35067 4.20313 1.90439 4.41554 0.458108 4.62795C-0.00381327 4.69579 -0.152631 5.15343 0.181041 5.47998C1.22755 6.50417 2.27406 7.52835 3.32057 8.55254L3.17742 8.11106C2.93045 9.55796 2.68347 11.0049 2.43649 12.4518C2.35773 12.9132 2.74907 13.1967 3.16296 12.978C4.45645 12.2945 5.74994 11.611 7.04343 10.9275H6.57623C7.86972 11.611 9.16321 12.2945 10.4567 12.978C10.8706 13.1967 11.2619 12.9132 11.1832 12.4518C10.9362 11.0049 10.6892 9.55796 10.4422 8.11106L10.2991 8.55254C11.3456 7.52835 12.3921 6.50417 13.4386 5.47998C13.7723 5.15343 13.6235 4.69579 13.1616 4.62795C11.7153 4.41554 10.269 4.20313 8.82272 3.99072L9.19884 4.26495C8.87501 3.60578 8.55119 2.9466 8.22736 2.28742C7.90444 1.63009 7.58152 0.972757 7.2586 0.315426ZM6.36106 0.756351L7.2586 0.315426C7.05193 -0.105278 6.56773 -0.105278 6.36106 0.315426L7.2586 0.756351L6.36106 0.756351Z" fill="#F0D365"/>
</svg>
