<svg width="20" height="23" viewBox="0 0 20 23" fill="none" xmlns="http://www.w3.org/2000/svg">
<path d="M17.0733 4.81219C16.9215 4.7337 16.7736 4.64765 16.6304 4.55438C16.2138 4.27896 15.8318 3.95445 15.4927 3.58781C14.6443 2.61703 14.3274 1.63219 14.2107 0.942656H14.2154C14.1179 0.370313 14.1582 0 14.1643 0H10.2999V14.9428C10.2999 15.1434 10.2999 15.3417 10.2915 15.5377C10.2915 15.562 10.2891 15.5845 10.2877 15.6108C10.2877 15.6216 10.2877 15.6328 10.2854 15.6441C10.2854 15.6469 10.2854 15.6497 10.2854 15.6525C10.2446 16.1886 10.0728 16.7066 9.78489 17.1607C9.49701 17.6148 9.10194 17.9913 8.63443 18.2569C8.14718 18.5341 7.5961 18.6795 7.03552 18.6788C5.23505 18.6788 3.77583 17.2106 3.77583 15.3975C3.77583 13.5844 5.23505 12.1163 7.03552 12.1163C7.37634 12.1159 7.71506 12.1696 8.03911 12.2752L8.0438 8.34047C7.06007 8.2134 6.06067 8.29158 5.10866 8.57008C4.15666 8.84858 3.2727 9.32136 2.51255 9.95859C1.84649 10.5373 1.28653 11.2278 0.857865 11.9991C0.69474 12.2803 0.0792712 13.4105 0.00473994 15.2447C-0.0421351 16.2858 0.270521 17.3644 0.419584 17.8102V17.8195C0.513334 18.082 0.876615 18.9778 1.46865 19.733C1.94604 20.3387 2.51006 20.8708 3.14255 21.3122V21.3028L3.15193 21.3122C5.02271 22.5834 7.09693 22.5 7.09693 22.5C7.45599 22.4855 8.6588 22.5 10.0247 21.8527C11.5397 21.135 12.4022 20.0658 12.4022 20.0658C12.9532 19.4269 13.3914 18.6988 13.6979 17.9128C14.0476 16.9936 14.1643 15.8911 14.1643 15.4505V7.52297C14.2111 7.55109 14.8355 7.96406 14.8355 7.96406C14.8355 7.96406 15.7351 8.54062 17.1385 8.91609C18.1454 9.18328 19.5019 9.23953 19.5019 9.23953V5.40328C19.0266 5.45484 18.0615 5.30484 17.0733 4.81219Z" fill="#828282"/>
</svg>
